<mxfile host="app.diagrams.net" modified="2020-10-07T09:57:06.352Z" agent="5.0 (Windows)" etag="R9ppz60eepGUceHXOZ9m" version="13.7.7" type="github">
  <diagram id="l2zbNosn7csgNT6BTFtS" name="Page-1">
    <mxGraphModel dx="910" dy="487" grid="1" gridSize="10" guides="1" tooltips="1" connect="1" arrows="1" fold="1" page="1" pageScale="1" pageWidth="1169" pageHeight="827" math="0" shadow="0">
      <root>
        <mxCell id="0" />
        <mxCell id="1" parent="0" />
        <mxCell id="B-BCGboMmKD--QZjU3KG-1" value="Memo Management" style="swimlane;html=1;childLayout=stackLayout;resizeParent=1;resizeParentMax=0;horizontal=1;startSize=20;horizontalStack=0;" vertex="1" parent="1">
          <mxGeometry x="20" y="20" width="1140" height="380" as="geometry" />
        </mxCell>
        <mxCell id="B-BCGboMmKD--QZjU3KG-2" value="Staff" style="swimlane;html=1;startSize=20;horizontal=0;" vertex="1" parent="B-BCGboMmKD--QZjU3KG-1">
          <mxGeometry y="20" width="1140" height="120" as="geometry" />
        </mxCell>
        <mxCell id="B-BCGboMmKD--QZjU3KG-3" value="Supervisor/Approver" style="swimlane;html=1;startSize=20;horizontal=0;" vertex="1" parent="B-BCGboMmKD--QZjU3KG-1">
          <mxGeometry y="140" width="1140" height="120" as="geometry" />
        </mxCell>
        <mxCell id="B-BCGboMmKD--QZjU3KG-4" value="Lane 3" style="swimlane;html=1;startSize=20;horizontal=0;" vertex="1" parent="B-BCGboMmKD--QZjU3KG-1">
          <mxGeometry y="260" width="1140" height="120" as="geometry" />
        </mxCell>
      </root>
    </mxGraphModel>
  </diagram>
</mxfile>
